<svg xmlns="http://www.w3.org/2000/svg" style="display: none;">
  
  <symbol id="icon-logout" viewBox="0 0 24 24" fill="none" stroke="currentColor" stroke-width="2" stroke-linecap="round" stroke-linejoin="round">
    <path d="M9 21H5a2 2 0 0 1-2-2V5a2 2 0 0 1 2-2h4"></path>
    <polyline points="16 17 21 12 16 7"></polyline>
    <line x1="21" y1="12" x2="9" y2="12"></line>
  </symbol>

  <symbol id="icon-search" viewBox="0 0 24 24" fill="none" stroke="currentColor" stroke-width="2" stroke-linecap="round" stroke-linejoin="round">
    <circle cx="11" cy="11" r="8"></circle>
    <line x1="21" y1="21" x2="16.65" y2="16.65"></line>
  </symbol>

  <symbol id="icon-gamepad" viewBox="0 0 24 24" fill="none" stroke="currentColor" stroke-width="2" stroke-linecap="round" stroke-linejoin="round">
    <rect x="2" y="6" width="20" height="12" rx="2"></rect>
    <path d="M6 12h4"></path>
    <path d="M8 10v4"></path>
    <path d="M15 13h.01"></path>
    <path d="M18 11h.01"></path>
  </symbol>

  <symbol id="icon-cloud" viewBox="0 0 24 24" fill="none" stroke="currentColor" stroke-width="2" stroke-linecap="round" stroke-linejoin="round">
    <path d="M17.5 19H9a7 7 0 1 1 6.71-9h1.79a4.5 4.5 0 1 1 0 9Z"></path>
  </symbol>

  <symbol id="icon-layers" viewBox="0 0 24 24" fill="none" stroke="currentColor" stroke-width="2" stroke-linecap="round" stroke-linejoin="round">
    <polygon points="12 2 2 7 12 12 22 7 12 2"></polygon>
    <polyline points="2 12 12 17 22 12"></polyline>
    <polyline points="2 17 12 22 22 17"></polyline>
  </symbol>

  <symbol id="icon-trash" viewBox="0 0 24 24" fill="none" stroke="currentColor" stroke-width="2" stroke-linecap="round" stroke-linejoin="round">
    <polyline points="3 6 5 6 21 6"></polyline>
    <path d="M19 6v14a2 2 0 0 1-2 2H7a2 2 0 0 1-2-2V6m3 0V4a2 2 0 0 1 2-2h4a2 2 0 0 1 2 2v2"></path>
  </symbol>

  <symbol id="icon-info" viewBox="0 0 24 24" fill="none" stroke="currentColor" stroke-width="2" stroke-linecap="round" stroke-linejoin="round">
    <circle cx="12" cy="12" r="10"></circle>
    <line x1="12" y1="16" x2="12" y2="12"></line>
    <line x1="12" y1="8" x2="12.01" y2="8"></line>
  </symbol>

  <symbol id="icon-filter" viewBox="0 0 24 24" fill="none" stroke="currentColor" stroke-width="2" stroke-linecap="round" stroke-linejoin="round">
    <polygon points="22 3 2 3 10 12.46 10 19 14 21 14 12.46 22 3"></polygon>
  </symbol>

  <symbol id="icon-star" viewBox="0 0 24 24" fill="none" stroke="currentColor" stroke-width="2" stroke-linecap="round" stroke-linejoin="round">
    <polygon points="12 2 15.09 8.26 22 9.27 17 14.14 18.18 21.02 12 17.77 5.82 21.02 7 14.14 2 9.27 8.91 8.26 12 2"></polygon>
  </symbol>

  <symbol id="icon-drag" viewBox="0 0 24 24" fill="none" stroke="currentColor" stroke-width="2" stroke-linecap="round" stroke-linejoin="round">
    <circle cx="9" cy="5" r="1"></circle>
    <circle cx="9" cy="12" r="1"></circle>
    <circle cx="9" cy="19" r="1"></circle>
    <circle cx="15" cy="5" r="1"></circle>
    <circle cx="15" cy="12" r="1"></circle>
    <circle cx="15" cy="19" r="1"></circle>
  </symbol>

  <symbol id="icon-pc" viewBox="0 0 24 24" fill="none" stroke="currentColor" stroke-width="2" stroke-linecap="round" stroke-linejoin="round">
  <rect x="2" y="3" width="20" height="14" rx="2" ry="2"></rect>
  <line x1="8" y1="21" x2="16" y2="21"></line>
  <line x1="12" y1="17" x2="12" y2="21"></line>
</symbol>

<symbol id="icon-ps" viewBox="0 0 24 24" fill="none" stroke="currentColor" stroke-width="2" stroke-linecap="round" stroke-linejoin="round">
  <rect x="2" y="6" width="20" height="12" rx="6" ry="6"></rect>
  <circle cx="17" cy="12" r="1"></circle>
  <circle cx="7" cy="12" r="1"></circle>
  <path d="M17 9v.01M17 15v.01M20 12h.01M14 12h.01M7 9v.01M7 15v.01M10 12h.01M4 12h.01"></path>
</symbol>

<symbol id="icon-xbox" viewBox="0 0 24 24" fill="none" stroke="currentColor" stroke-width="2" stroke-linecap="round" stroke-linejoin="round">
  <circle cx="12" cy="12" r="10"></circle>
  <path d="M6.5 6.5l11 11"></path>
  <path d="M17.5 6.5l-11 11"></path>
</symbol>

<symbol id="icon-switch" viewBox="0 0 24 24" fill="none" stroke="currentColor" stroke-width="2" stroke-linecap="round" stroke-linejoin="round">
  <rect x="2" y="4" width="8" height="16" rx="3"></rect>
  <rect x="14" y="4" width="8" height="16" rx="3"></rect>
  <circle cx="6" cy="9" r="1"></circle>
  <circle cx="18" cy="15" r="1"></circle>
</symbol>

<svg viewBox="0 0 100 100" xmlns="http://www.w3.org/2000/svg">
  <defs>
    <filter id="neon-glow" x="-50%" y="-50%" width="200%" height="200%">
      <feDropShadow dx="0" dy="0" stdDeviation="3" flood-color="#8b5cf6" flood-opacity="1"/>
      <feDropShadow dx="0" dy="0" stdDeviation="1.5" flood-color="#8b5cf6" flood-opacity="0.8"/>
    </filter>
  </defs>
  
  <path d="M50 5 L90 27.5 V72.5 L50 95 L10 72.5 V27.5 Z" fill="#1e293b" stroke="#8b5cf6" stroke-width="2" />
  
  <path d="M50 25 C35 25 35 45 35 45 L35 55 C35 55 35 75 50 75 C65 75 65 55 65 55 L65 45 C65 45 65 25 50 25 Z" fill="#e2e8f0" filter="url(#neon-glow)" />
  
  <path d="M45 58 V62 H41 V66 H45 V70 H49 V66 H53 V62 H49 V58 H45 Z" fill="#8b5cf6" filter="url(#neon-glow)" />
</svg>

</svg>
